<svg id="Layer_1" data-name="Layer 1" xmlns="http://www.w3.org/2000/svg" viewBox="0 0 200 200"><defs><style>.cls-1{fill:#a3cef1;}</style></defs><path class="cls-1" d="M2,99.85A97.81,97.81,0,0,1,101,2c55.51.63,96.86,46.06,97,97.66A98.06,98.06,0,0,1,98.51,198C44.92,197.34,1.05,152.5,2,99.85Zm99.55-25c-1.14-16-2.18-31.09-3.33-46.15-.31-4-2.57-6.21-6.53-6A67.36,67.36,0,0,0,62.2,30.92c-4.09,2.25-4.62,5.53-2.13,9.48q13.25,21,26.57,42a20.17,20.17,0,0,0,3.73,4.57c4.19,3.58,9.79,1.71,10.76-3.67A56.45,56.45,0,0,0,101.57,74.88Zm-.46,61.69h.14c0-4.69,0-9.39,0-14.08,0-3.75-1.38-5.94-4.42-7.1-3.29-1.27-6-.69-8.42,2.16q-9.45,11-18.74,22.24c-3,3.62-2.55,7.22,1.38,9.89a48.8,48.8,0,0,0,22.64,8.26c4.84.5,7.26-1.8,7.4-6.67S101.11,141.47,101.11,136.57Zm29.76,12c1.8-.66,3.24-.86,4.26-1.62A47.7,47.7,0,0,0,151,126.8c1.6-3.79.06-6.88-3.83-8.22-9.55-3.28-19.17-6.38-28.76-9.56-3-1-5.36.12-7.2,2.37s-2.61,5.09-.93,7.84c5.39,8.8,10.79,17.59,16.39,26.25C127.57,146.86,129.51,147.58,130.87,148.54Zm-83.42-45.7c.38,3.54.5,6.58,1.07,9.53,1.15,5.91,3.9,7.58,9.59,5.84,9-2.74,17.87-5.63,26.79-8.5,3.54-1.13,5.1-3.14,5.28-6.53s-1.36-5.83-4.8-7.24C76.62,92.32,67.85,88.72,59,85.22c-5.14-2-8.55-.34-9.76,5.13C48.34,94.6,48,99,47.45,102.84Zm68-3c1.12-.18,2.27-.28,3.37-.56,8.8-2.16,17.59-4.31,26.36-6.54,5-1.27,6.69-4.36,4.91-9.13a50.07,50.07,0,0,0-12.67-19.11c-4.18-4-7.6-3.62-11,.94-5.75,7.67-11.36,15.44-17.06,23.15a6.43,6.43,0,0,0-.5,7.34C110.26,98.53,112.35,100.1,115.49,99.88Z"/></svg>