<svg id="Layer_1" data-name="Layer 1" xmlns="http://www.w3.org/2000/svg" viewBox="0 0 483.98 160.48"><defs><style>.cls-1{fill:#14486e;}.cls-2{fill:#231f20;}</style></defs><path class="cls-1" d="M167.49,36.62c2.22-.26,4.47-.44,6.68-.79a175.42,175.42,0,0,0,27-6.26,1.93,1.93,0,0,1,.36-.06c.7,2.55,2.82,3.16,5,3.6a36.6,36.6,0,0,0,3.93.43,1.76,1.76,0,0,1,.68.14c-.22.11-.43.22-.65.31a114.48,114.48,0,0,1-22,6.84,38.71,38.71,0,0,1-12.65.77A12.08,12.08,0,0,1,169.19,39a17,17,0,0,1-1.7-2.07Z"/><path class="cls-1" d="M242.22,16.58a6.28,6.28,0,0,1,3.43,2.07A5.44,5.44,0,1,1,236,22a5.41,5.41,0,0,1,3.9-5.17c.24-.07.47-.16.7-.24Z"/><path class="cls-1" d="M247.67,82.66c1.3-.52,2.58-1,3.82-1.53a7.81,7.81,0,0,0,1.53-.95c1.78-1.32,2.12-2.62,1.23-5A6.19,6.19,0,0,0,250.79,72a18.74,18.74,0,0,0-7.06-1.61c-2.75-.17-5.51-.26-8.26-.48-4.72-.39-9.26-1.41-13.08-4.45a12.17,12.17,0,0,1-4.18-5.11c-2-5.2-.7-12.34,5.89-15.53a24.15,24.15,0,0,1,9.76-2.15,4.53,4.53,0,0,1,2.46.8,30.91,30.91,0,0,1,3.19,2.65.91.91,0,0,1,0,1.46,4.73,4.73,0,0,1-1.4,1,8.36,8.36,0,0,1-6.8.39,4.42,4.42,0,0,0-4.81,1c-1.55,1.27-1.91,3-2.2,4.78a5.45,5.45,0,0,0,2.82,5.92,17.85,17.85,0,0,0,7.56,2.59c2.64.3,5.31.39,8,.58a27.81,27.81,0,0,1,11.26,2.74,11.84,11.84,0,0,1,6.34,7.28c1.5,5.2-.34,9.55-5.32,12.22a.62.62,0,0,1-.55,0A18.27,18.27,0,0,0,247.67,82.66ZM234.73,44.55c-.36-.24-.57-.51-.76-.49a.69.69,0,0,0-.48.5c0,.18.3.47.49.5S234.37,44.8,234.73,44.55Z"/><path class="cls-1" d="M230.89,40.11l1.6-.73,0-.14-2.16.21c-.53.06-1.06.12-1.6.15a.9.9,0,0,1-.51-.12c-1.43-.92-2.85-1.87-4.29-2.81l3-1.17,0-.2c-.88.08-1.76.14-2.64.25s-1.74.29-2.62.34a2.74,2.74,0,0,1-1.51-.3C219,34.87,218,34,216.81,33.16l4.47-1.62-.06-.21c-1,.15-1.93.3-2.89.47a30.86,30.86,0,0,1-7.1.74,13.67,13.67,0,0,1-6.95-1.9,6.72,6.72,0,0,1-1.31-1.3c-.25-.3-.15-.57.2-.8,5.48-3.49,11-6.81,17.22-8.95a14.62,14.62,0,0,1,5.79-.93,4.28,4.28,0,0,1,4.35,4.53c0,1.37-.17,2.73-.15,4.1a16.39,16.39,0,0,0,.36,3.57c.73,3,2.84,4.63,6.1,5a1.42,1.42,0,0,0,.35,0c1.39-.21,2.12.56,2.61,1.74.39,1,.83,1.89,1.24,2.8-2.13.07-4.15.18-6.17.16-1.33,0-2.66-.18-4-.29Z"/><path class="cls-1" d="M261.4,31.55l4.5,1.62c-1.33.94-2.52,1.84-3.77,2.62a2.43,2.43,0,0,1-1.35.07c-1.45-.15-2.9-.34-4.35-.51a1.18,1.18,0,0,0-.72.15L259,36.75c-.87.44-1.63.8-2.37,1.21a4.84,4.84,0,0,0-1.31.9,2.57,2.57,0,0,1-2.53.65,13.09,13.09,0,0,0-2.6-.14l1.77.82c-3.48.81-6.84.26-10.24.29a13,13,0,0,1,2.12-4.25c.14-.19.53-.21.82-.26a21.76,21.76,0,0,0,2.8-.44,6.41,6.41,0,0,0,4.77-6.08c.1-1.47-.06-3,0-4.44a17.12,17.12,0,0,1,.16-3,4,4,0,0,1,4-3.29,14.54,14.54,0,0,1,6.06.93,68.16,68.16,0,0,1,12.43,6c1.54.91,3,1.87,4.55,2.81.61.39.71.69.2,1.21a7.25,7.25,0,0,1-1.85,1.42,15.06,15.06,0,0,1-8.46,1.41c-2.43-.24-4.85-.71-7.27-1.07l-.48,0Z"/><path class="cls-1" d="M233.76,71.27c-.55.24-1.11.44-1.64.71a6.15,6.15,0,0,0-3.73,4.21,3.41,3.41,0,0,0,1.15,3.68,13.12,13.12,0,0,0,6.72,2.8c2.19.29,4.42.43,6.64.52a17.25,17.25,0,0,1,8.61,2.34,10.8,10.8,0,0,1,4.66,11.77,7.91,7.91,0,0,1-3.47,4.45.82.82,0,0,1-.68.07c-1.72-.9-3.42-1.84-5.19-2.8.54-.17,1-.32,1.55-.51,2.93-1.07,3.75-2.94,2.59-5.85a5.87,5.87,0,0,0-4.27-3.43,20.81,20.81,0,0,0-6.14-.55,28.51,28.51,0,0,1-8.72-1.13,17.07,17.07,0,0,1-5.77-2.83,9.43,9.43,0,0,1-3.55-10.14,11,11,0,0,1,2.83-5.34c.22-.23.41-.44.82-.24A29.18,29.18,0,0,0,233.76,71.27Z"/><path class="cls-1" d="M281.14,29.49a184.1,184.1,0,0,0,34,7.23,11.68,11.68,0,0,1-2.83,2.66,15.85,15.85,0,0,1-10.5,2.38,78.64,78.64,0,0,1-16.92-3.42c-4.26-1.33-8.45-2.9-12.67-4.36-.23-.08-.45-.2-.78-.34,1.39-.13,2.66-.19,3.9-.38a15.23,15.23,0,0,0,2.88-.74A4,4,0,0,0,281.14,29.49Z"/><path class="cls-1" d="M248.56,63.24a34.36,34.36,0,0,0,3.33-.88,28.39,28.39,0,0,0,4-1.8,5.34,5.34,0,0,0,2.76-6.18c-.06-.34-.15-.68-.19-1a5.51,5.51,0,0,0-2.52-3.9,4,4,0,0,0-4.2-.54,8.44,8.44,0,0,1-6.49-.21l-.38-.16c-1.61-.89-2.56-1.66-.64-3.31a27.18,27.18,0,0,1,2.43-1.84c1.36-.93,2.88-.82,4.43-.66a20.34,20.34,0,0,1,9.31,2.93,11.16,11.16,0,0,1,5.11,8.51,11.46,11.46,0,0,1-1.15,7,15.58,15.58,0,0,1-6.44,6,.87.87,0,0,1-.69-.1A45,45,0,0,0,248.56,63.24Zm.51-17.93c.23-.36.5-.59.47-.77a.69.69,0,0,0-.52-.47c-.18,0-.47.32-.48.51S248.81,45,249.07,45.31Z"/><path class="cls-1" d="M234.76,89.58a12.57,12.57,0,0,0-2.27,2.23,8.75,8.75,0,0,0-1,3.07,2.73,2.73,0,0,0,1.34,2.72,9.74,9.74,0,0,0,4.88,1.64c1.75.16,3.52.13,5.27.3,4,.39,7.25,1.91,9.09,5.7a8.22,8.22,0,0,1-3.08,11,1,1,0,0,1-.74.15c-1.5-.59-3-1.23-4.29-1.79.71-.34,1.67-.74,2.55-1.26a4.94,4.94,0,0,0,2.35-2.82,5.21,5.21,0,0,0-2.22-5.31A8.58,8.58,0,0,0,242,104c-1.83-.06-3.67,0-5.48-.16a12.8,12.8,0,0,1-7.27-2.83,8,8,0,0,1-2.69-7.52,10.6,10.6,0,0,1,2.25-5.52.75.75,0,0,1,.64-.27C231.28,88.3,233.12,89,234.76,89.58Z"/><path class="cls-1" d="M180.32,43.15c1.09-.15,2-.24,2.87-.39A109.51,109.51,0,0,0,211.94,34a3.75,3.75,0,0,1,3-.45,7.28,7.28,0,0,1,1.72,1c.43.3.76.74,1.19,1.06a15.29,15.29,0,0,0,1.46.86c-1.07.7-2.07,1.4-3.12,2a53.79,53.79,0,0,1-17.48,6.93,33,33,0,0,1-15.27-.64,13.94,13.94,0,0,1-2.11-.9A8.28,8.28,0,0,1,180.32,43.15Z"/><path class="cls-1" d="M302,43.08a18.69,18.69,0,0,1-6,2.29,29.59,29.59,0,0,1-14.09-.44,59.89,59.89,0,0,1-17.52-7.74c-.29-.19-.57-.4-.85-.61-.05,0-.07-.12,0,0,.78-.62,1.57-1.17,2.27-1.83a4.18,4.18,0,0,1,3.32-1.29,2.43,2.43,0,0,1,.8.21,88.72,88.72,0,0,0,16.49,6.18A97.43,97.43,0,0,0,301.06,43C301.37,43,301.68,43.05,302,43.08Z"/><path class="cls-1" d="M196.3,46.77l1.16-.2a59,59,0,0,0,16.47-5.72c2.09-1.05,4.09-2.27,6.16-3.36a2.81,2.81,0,0,1,1.52-.24c2.2.31,3.9,1.59,5.68,3-.55.33-1,.62-1.49.89A88,88,0,0,1,213,47.64a21.78,21.78,0,0,1-13.16,1A8.42,8.42,0,0,1,196.3,46.77Z"/><path class="cls-1" d="M286.31,46.81a9.23,9.23,0,0,1-4.57,2,22.62,22.62,0,0,1-14.07-2.06c-4-2-7.9-4.18-11.85-6.29-.11-.06-.22-.15-.43-.29,1.87-1.45,3.68-2.85,6.09-3a2.52,2.52,0,0,1,1.29.39A72.27,72.27,0,0,0,283,46.14c.93.22,1.87.34,2.81.52A4.15,4.15,0,0,1,286.31,46.81Z"/><path class="cls-1" d="M236.23,105.21a5.67,5.67,0,0,0-2.08,3,3.9,3.9,0,0,0,1,4.15,9.28,9.28,0,0,0,5.17,2.49c1.37.24,2.77.37,4.09.74A6.9,6.9,0,0,1,248,127a12.75,12.75,0,0,1-2,1.52.59.59,0,0,1-.5.08c-.9-.39-1.79-.81-2.7-1.23.81-.47,1.62-.87,2.35-1.38a4,4,0,0,0,1.64-4.16,3.29,3.29,0,0,0-2.57-2.87,18,18,0,0,0-3.27-.56,14.87,14.87,0,0,1-7-2.21,8.19,8.19,0,0,1-4-6.19,9,9,0,0,1,1.69-6.1.72.72,0,0,1,.62-.16C233.55,104.22,234.85,104.71,236.23,105.21Z"/><path class="cls-1" d="M240.06,130.7c-2.31,1.59-2.7,3.74-2.13,6.16a3.49,3.49,0,0,0,2.72,2.72c-.1-2.87-.19-5.68-.29-8.54h1.84l-.27,8.55a3.57,3.57,0,0,0,3.21-3.12c.62-3.27-.84-5.54-4-6.48a20.75,20.75,0,0,1-4.46-1.66,7,7,0,0,1-2.35-9.89c.3-.46.58-.63,1.13-.4.89.38,1.82.68,2.87,1.19a2.07,2.07,0,0,0-.33.1c-2.38,1.08-2.4,4.9-.47,6.47a11.84,11.84,0,0,0,4,1.94,7.16,7.16,0,0,1,5,4.28,7,7,0,0,1-.5,6,3.89,3.89,0,0,1-4,2.07c-.14,2.25-.27,4.44-.41,6.64h-.26c-.45-2.15-.35-4.36-.6-6.56a9,9,0,0,1-1.28-.23,4.17,4.17,0,0,1-2.73-2.68,7,7,0,0,1,.86-7c.3-.39.59-.54,1.05-.27S239.47,130.43,240.06,130.7Z"/><path class="cls-1" d="M241.38,45.55c.74,1.75,1.45,3.3,2.05,4.89a4.52,4.52,0,0,1,0,1.52V62.43H239.3V60.27c0-3.1,0-6.21,0-9.31a2.09,2.09,0,0,1,.09-.75C240,48.72,240.65,47.24,241.38,45.55Z"/><path class="cls-1" d="M239.52,71.34h3.62V82.07h-3.62Z"/><path class="cls-1" d="M236.28,41.49c-.48.55-.83.82-1.51.73A18.43,18.43,0,0,0,219.57,47a17.88,17.88,0,0,0-2,2.56c-.13.16-.35.38-.5.35-1.73-.26-3.46-.56-5.19-.85,0,0-.07-.06-.08-.07,1.84-.86,3.71-1.65,5.51-2.59,3.48-1.8,6.9-3.69,10.36-5.53a1.31,1.31,0,0,1,.7-.15c2.08.21,4.14.45,6.21.66C235.11,41.42,235.64,41.44,236.28,41.49Z"/><path class="cls-1" d="M270.88,49.16c-1.78.25-3.56.52-5.34.74a.74.74,0,0,1-.53-.33c-2.7-4.63-7-6.6-12.06-7.4a13.6,13.6,0,0,0-5.24.12c-.37.08-.87-.36-1.31-.55l.09-.26c1-.07,2.1-.12,3.15-.23,1.56-.16,3.12-.39,4.69-.55a1.31,1.31,0,0,1,.75.22,143.45,143.45,0,0,0,14.65,7.52c.38.17.77.3,1.16.45Z"/><path class="cls-1" d="M239.72,89.59h3.22V99h-3.22Z"/><path class="cls-1" d="M239.94,114v-9.52h2.82c0,1,0,1.91,0,2.87,0,1.94-.1,3.89-.11,5.83,0,.6-.11.91-.8.84A16.67,16.67,0,0,0,239.94,114Z"/><path class="cls-1" d="M241.38,39a23.27,23.27,0,0,1-2-3.82,6.82,6.82,0,0,1,0-3.27c.2-.95,1.26-.93,2.05-.92,1.59,0,2.08.64,2.16,2.23a5.39,5.39,0,0,1-.84,3.28C242.28,37.23,241.89,38,241.38,39Z"/><path class="cls-1" d="M241.41,30.66a4.13,4.13,0,0,1-3.73-2.24,1,1,0,0,1-.06-.89c.11-.16.6-.2.85-.11a9,9,0,0,0,5.85,0c.25-.08.73-.05.81.09a1.08,1.08,0,0,1,0,.88A4.14,4.14,0,0,1,241.41,30.66Z"/><path class="cls-1" d="M240.25,119.17h2.18c0,.65,0,1.26,0,1.88,0,1.76-.08,3.51-.09,5.27,0,.48-.15.67-.64.63s-.88,0-1.45,0Z"/><path class="cls-1" d="M246.43,42.67l-4,3.25a7.23,7.23,0,0,1-.79-4.42c0-.12.27-.31.41-.31A5.22,5.22,0,0,1,246.43,42.67Z"/><path class="cls-1" d="M240.41,45.51l-3.93-3c1.14-1.26,2.75-1.32,4.46-1.29A7.36,7.36,0,0,1,240.41,45.51Z"/><path class="cls-2" d="M11,72.82h9.84V75h-7.2v4.68h7.2v2.13h-7.2v7.82H11Z"/><path class="cls-2" d="M23.42,72.82h2.4V89.59h-2.4Z"/><path class="cls-2" d="M35.1,78.52a6.66,6.66,0,0,1,4.61,1.63,5.23,5.23,0,0,1,1.84,4.09,5,5,0,0,1-1.87,4A7,7,0,0,1,35,89.78a6.67,6.67,0,0,1-4.57-1.6,5.29,5.29,0,0,1,0-8A6.81,6.81,0,0,1,35.1,78.52Zm-.13,2a4,4,0,0,0-2.84,1A3.44,3.44,0,0,0,31,84.15a3.29,3.29,0,0,0,1.14,2.59,4.23,4.23,0,0,0,2.92,1,4.17,4.17,0,0,0,2.89-1,3.53,3.53,0,0,0,0-5.21A4.32,4.32,0,0,0,35,80.49Z"/><path class="cls-2" d="M46.79,78.55v2.53l.13-.19q1.74-2.56,3.49-2.56a4.48,4.48,0,0,1,2.83,1.25L52,81.5a3.71,3.71,0,0,0-2.33-1.08,2.55,2.55,0,0,0-2,1,3.57,3.57,0,0,0-.85,2.39v5.77H44.37v-11Z"/><path class="cls-2" d="M64.73,84.26H56.19a3.43,3.43,0,0,0,1.17,2.52,4.08,4.08,0,0,0,2.78.94,7.7,7.7,0,0,0,4.38-1.35v2.14a8.23,8.23,0,0,1-2.2,1,10.11,10.11,0,0,1-2.55.29A6.23,6.23,0,0,1,56.52,89a5.69,5.69,0,0,1-2-2,5.76,5.76,0,0,1-.74-3,5.55,5.55,0,0,1,1.57-4.1,5.49,5.49,0,0,1,4.08-1.58,5,5,0,0,1,3.85,1.54A5.75,5.75,0,0,1,64.73,84ZM56.24,83h6.12a3,3,0,0,0-.86-2,2.92,2.92,0,0,0-2.06-.7,3.13,3.13,0,0,0-2.12.7A3.46,3.46,0,0,0,56.24,83Z"/><path class="cls-2" d="M69.74,78.55V80a5,5,0,0,1,3.65-1.62,4.44,4.44,0,0,1,2.12.53A3.67,3.67,0,0,1,77,80.33a6.42,6.42,0,0,1,.51,3v6.31H75.1V83.3a4,4,0,0,0-.57-2.42,2.28,2.28,0,0,0-1.9-.73,3.54,3.54,0,0,0-2.89,1.55v7.89H67.28v-11Z"/><path class="cls-2" d="M90,87v2.16a10.88,10.88,0,0,1-3.53.61,6.52,6.52,0,0,1-4.55-1.53,5.3,5.3,0,0,1-1.7-4.12,5.57,5.57,0,0,1,1.65-4.2,6,6,0,0,1,4.34-1.6,7.89,7.89,0,0,1,1.69.16,11.49,11.49,0,0,1,1.84.61v2.33a6.75,6.75,0,0,0-3.38-1.06,3.65,3.65,0,0,0-2.67,1,3.59,3.59,0,0,0-1,2.65,3.4,3.4,0,0,0,1.13,2.68,4.41,4.41,0,0,0,3,1A8.48,8.48,0,0,0,90,87Z"/><path class="cls-2" d="M103.05,84.26H94.51a3.43,3.43,0,0,0,1.17,2.52,4.08,4.08,0,0,0,2.78.94,7.7,7.7,0,0,0,4.38-1.35v2.14a8.23,8.23,0,0,1-2.2,1,10.17,10.17,0,0,1-2.55.29A6.2,6.2,0,0,1,94.84,89a5.69,5.69,0,0,1-2-2,5.76,5.76,0,0,1-.75-3,5.55,5.55,0,0,1,1.58-4.1,5.49,5.49,0,0,1,4.08-1.58,5,5,0,0,1,3.85,1.54A5.75,5.75,0,0,1,103.05,84ZM94.56,83h6.11a2.66,2.66,0,0,0-2.91-2.72,3.13,3.13,0,0,0-2.12.7A3.46,3.46,0,0,0,94.56,83Z"/><path class="cls-2" d="M133.61,72.82h2.64l-7.46,16.84h-.58l-6-13.64-6.1,13.64h-.56l-7.44-16.84h2.66l5.09,11.56,5.11-11.56h2.5l5.14,11.56Z"/><path class="cls-2" d="M145.88,84.26h-8.54a3.43,3.43,0,0,0,1.17,2.52,4.1,4.1,0,0,0,2.78.94,7.67,7.67,0,0,0,4.38-1.35v2.14a8.23,8.23,0,0,1-2.2,1,10.06,10.06,0,0,1-2.55.29,6.23,6.23,0,0,1-3.25-.76,5.69,5.69,0,0,1-2-2,5.86,5.86,0,0,1-.74-3,5.4,5.4,0,0,1,5.65-5.68,5,5,0,0,1,3.86,1.54A5.79,5.79,0,0,1,145.88,84ZM137.39,83h6.12a2.68,2.68,0,0,0-2.92-2.72,3.15,3.15,0,0,0-2.12.7A3.46,3.46,0,0,0,137.39,83Z"/><path class="cls-2" d="M147.89,88.8V86.44a10.42,10.42,0,0,0,2.08,1,5.28,5.28,0,0,0,1.79.41,2.43,2.43,0,0,0,1.29-.34.94.94,0,0,0,.55-.8,1,1,0,0,0-.35-.8,8.51,8.51,0,0,0-1.52-.92,10.71,10.71,0,0,1-3-2,2.73,2.73,0,0,1-.72-1.82,2.47,2.47,0,0,1,1.09-2.08,4.65,4.65,0,0,1,2.81-.8,8.3,8.3,0,0,1,3.65.91V81.4a7.79,7.79,0,0,0-3.5-1.17,2.06,2.06,0,0,0-1.12.27.81.81,0,0,0-.43.71,1,1,0,0,0,.39.73,6.14,6.14,0,0,0,1.36.85l.86.44q3,1.56,3,3.46A2.66,2.66,0,0,1,155,88.91a4.91,4.91,0,0,1-3,.87,8,8,0,0,1-1.92-.21A14.35,14.35,0,0,1,147.89,88.8Z"/><path class="cls-2" d="M157.19,80.3l4.51-4v2.29h3.85v2H161.7v5.41c0,1.26.58,1.89,1.73,1.89a5.76,5.76,0,0,0,2.74-.78v2a6.63,6.63,0,0,1-3,.71,4.26,4.26,0,0,1-2.74-.87,2.68,2.68,0,0,1-.57-.6,3,3,0,0,1-.38-.86,9,9,0,0,1-.15-2v-4.9h-2.11Z"/><path class="cls-2" d="M178.25,84.26H169.7a3.5,3.5,0,0,0,1.17,2.52,4.12,4.12,0,0,0,2.78.94A7.71,7.71,0,0,0,178,86.37v2.14a8.37,8.37,0,0,1-2.2,1,10.2,10.2,0,0,1-2.56.29A6.23,6.23,0,0,1,170,89a5.68,5.68,0,0,1-2.73-5,5.59,5.59,0,0,1,1.57-4.1A5.52,5.52,0,0,1,173,78.33a5,5,0,0,1,3.86,1.54A5.75,5.75,0,0,1,178.25,84ZM169.76,83h6.11A2.68,2.68,0,0,0,173,80.23a3.15,3.15,0,0,0-2.12.7A3.39,3.39,0,0,0,169.76,83Z"/><path class="cls-2" d="M183.42,78.55v2.53l.14-.19q1.74-2.56,3.48-2.56a4.51,4.51,0,0,1,2.84,1.25l-1.27,1.92a3.69,3.69,0,0,0-2.32-1.08,2.52,2.52,0,0,0-2,1,3.58,3.58,0,0,0-.86,2.39v5.77H181v-11Z"/><path class="cls-2" d="M194,78.55V80a5,5,0,0,1,3.66-1.62,4.38,4.38,0,0,1,2.11.53,3.7,3.7,0,0,1,1.49,1.47,6.44,6.44,0,0,1,.5,3v6.31h-2.4V83.3a4,4,0,0,0-.57-2.42,2.27,2.27,0,0,0-1.9-.73A3.55,3.55,0,0,0,194,81.7v7.89H191.5v-11Z"/><path class="cls-2" d="M67.17,102.32h2.47v16.77H67V106l-5.67,6.48h-.49L55.09,106v13H52.45V102.32H55l6.13,6.89Z"/><path class="cls-2" d="M83.64,113.76H75.1a3.43,3.43,0,0,0,1.17,2.52,4,4,0,0,0,2.78.94,7.7,7.7,0,0,0,4.38-1.35V118a8.23,8.23,0,0,1-2.2,1,10.17,10.17,0,0,1-2.55.29,6.11,6.11,0,0,1-3.25-.76,5.69,5.69,0,0,1-2-2,5.76,5.76,0,0,1-.75-3,5.55,5.55,0,0,1,1.58-4.1,5.49,5.49,0,0,1,4.08-1.58,5,5,0,0,1,3.85,1.54,5.75,5.75,0,0,1,1.44,4.11Zm-8.49-1.31h6.11a2.69,2.69,0,0,0-2.91-2.72,3.09,3.09,0,0,0-2.12.71A3.4,3.4,0,0,0,75.15,112.45Z"/><path class="cls-2" d="M94.35,102.32h2.41v16.77H91.63a5.94,5.94,0,0,1-4.3-1.55,5.48,5.48,0,0,1-1.6-4.15,5.25,5.25,0,0,1,1.68-4,6,6,0,0,1,4.3-1.57,8.54,8.54,0,0,1,2.64.46Zm0,14.9v-7a5.48,5.48,0,0,0-2.27-.52,3.67,3.67,0,0,0-3.92,4,3.53,3.53,0,0,0,.92,2.63,2.88,2.88,0,0,0,1.18.75,9,9,0,0,0,2.23.19Z"/><path class="cls-2" d="M101.27,103.4a1.51,1.51,0,0,1,1,.37,1.19,1.19,0,0,1,0,1.83,1.47,1.47,0,0,1-1,.38,1.4,1.4,0,0,1-1-.39,1.17,1.17,0,0,1,0-1.8A1.4,1.4,0,0,1,101.27,103.4Zm-1.19,4.65h2.4v11h-2.4Z"/><path class="cls-2" d="M115.07,116.51v2.16a11,11,0,0,1-3.54.61,6.54,6.54,0,0,1-4.55-1.53,5.3,5.3,0,0,1-1.7-4.12,5.57,5.57,0,0,1,1.65-4.2,6,6,0,0,1,4.35-1.6A7.86,7.86,0,0,1,113,108a11.49,11.49,0,0,1,1.84.61v2.33a6.75,6.75,0,0,0-3.38-1.06,3.65,3.65,0,0,0-2.67,1,3.59,3.59,0,0,0-1,2.65,3.44,3.44,0,0,0,1.13,2.69,4.45,4.45,0,0,0,3,1A8.57,8.57,0,0,0,115.07,116.51Z"/><path class="cls-2" d="M125.43,112.45v4.7c0,.37.14.56.42.56a3.06,3.06,0,0,0,1.36-.59v1.33a8.37,8.37,0,0,1-1.31.66,3.29,3.29,0,0,1-1,.17c-1,0-1.63-.37-1.82-1.1a5.56,5.56,0,0,1-3.26,1.08,3.05,3.05,0,0,1-2.11-.76,2.46,2.46,0,0,1-.85-1.92,2.58,2.58,0,0,1,.83-1.87,5.79,5.79,0,0,1,2.34-1.3l3.08-1v-.59c0-1.32-.73-2-2.19-2a5.46,5.46,0,0,0-3.83,1.85v-2.39a5.22,5.22,0,0,1,4-1.5,4.92,4.92,0,0,1,3.16.94,2.94,2.94,0,0,1,.71.8,2.78,2.78,0,0,1,.41,1A15,15,0,0,1,125.43,112.45Zm-2.36,4.46v-3.28l-1.61.56a5.69,5.69,0,0,0-1.74.9,1.51,1.51,0,0,0,0,2.24,1.86,1.86,0,0,0,1.25.43A3.21,3.21,0,0,0,123.07,116.91Z"/><path class="cls-2" d="M129.39,102.32h2.41v16.77h-2.41Z"/><path class="cls-2" d="M159,115.2v2.64a14.92,14.92,0,0,1-6.71,1.44,11.06,11.06,0,0,1-5.24-1.13,8.68,8.68,0,0,1-3.41-3.11,8,8,0,0,1,1.62-10.44,10.45,10.45,0,0,1,7.08-2.5,18.06,18.06,0,0,1,6.46,1.39v2.58a13.66,13.66,0,0,0-6.32-1.68,7.76,7.76,0,0,0-5.27,1.81,5.81,5.81,0,0,0-2.09,4.56,5.75,5.75,0,0,0,2.06,4.54,7.81,7.81,0,0,0,5.27,1.77A12.77,12.77,0,0,0,159,115.2Z"/><path class="cls-2" d="M162,102.32h2.4v16.77H162Z"/><path class="cls-2" d="M169.1,103.4a1.51,1.51,0,0,1,1,.37,1.19,1.19,0,0,1,0,1.83,1.47,1.47,0,0,1-1,.38,1.4,1.4,0,0,1-1-.39,1.17,1.17,0,0,1,0-1.8A1.4,1.4,0,0,1,169.1,103.4Zm-1.19,4.65h2.4v11h-2.4Z"/><path class="cls-2" d="M176.19,108.05v1.4a5,5,0,0,1,3.66-1.62,4.4,4.4,0,0,1,2.11.53,3.61,3.61,0,0,1,1.48,1.47,6.42,6.42,0,0,1,.51,3v6.31h-2.4V112.8a4,4,0,0,0-.57-2.42,2.28,2.28,0,0,0-1.9-.72,3.53,3.53,0,0,0-2.89,1.54v7.89h-2.46v-11Z"/><path class="cls-2" d="M188.55,103.4a1.51,1.51,0,0,1,1,.37,1.19,1.19,0,0,1,0,1.83,1.47,1.47,0,0,1-1,.38,1.4,1.4,0,0,1-1-.39,1.17,1.17,0,0,1,0-1.8A1.4,1.4,0,0,1,188.55,103.4Zm-1.19,4.65h2.4v11h-2.4Z"/><path class="cls-2" d="M202.35,116.51v2.16a11,11,0,0,1-3.54.61,6.54,6.54,0,0,1-4.55-1.53,5.3,5.3,0,0,1-1.7-4.12,5.57,5.57,0,0,1,1.65-4.2,6,6,0,0,1,4.35-1.6,7.86,7.86,0,0,1,1.68.16,11.49,11.49,0,0,1,1.84.61v2.33a6.75,6.75,0,0,0-3.38-1.06,3.65,3.65,0,0,0-2.67,1,3.59,3.59,0,0,0-1,2.65,3.44,3.44,0,0,0,1.13,2.69,4.45,4.45,0,0,0,3,1A8.57,8.57,0,0,0,202.35,116.51Z"/><path class="cls-2" d="M296.29,72.82h2.47V89.59H296.1v-13L290.43,83h-.49l-5.73-6.48v13h-2.64V72.82h2.5l6.13,6.89Z"/><path class="cls-2" d="M312.76,84.26h-8.55a3.43,3.43,0,0,0,1.17,2.52,4.1,4.1,0,0,0,2.78.94,7.67,7.67,0,0,0,4.38-1.35v2.14a8.23,8.23,0,0,1-2.2,1,10.06,10.06,0,0,1-2.55.29,6.23,6.23,0,0,1-3.25-.76,5.69,5.69,0,0,1-2-2,5.86,5.86,0,0,1-.74-3,5.4,5.4,0,0,1,5.65-5.68,5,5,0,0,1,3.86,1.54A5.75,5.75,0,0,1,312.76,84ZM304.26,83h6.12a2.68,2.68,0,0,0-2.92-2.72,3.15,3.15,0,0,0-2.12.7A3.46,3.46,0,0,0,304.26,83Z"/><path class="cls-2" d="M323.46,72.82h2.42V89.59h-5.14a6,6,0,0,1-4.3-1.55,5.54,5.54,0,0,1-1.6-4.15,5.25,5.25,0,0,1,1.68-4,6.06,6.06,0,0,1,4.3-1.57,8.54,8.54,0,0,1,2.64.46Zm0,14.9v-7a5.29,5.29,0,0,0-2.27-.52,3.67,3.67,0,0,0-3.92,4,3.58,3.58,0,0,0,.92,2.63,2.81,2.81,0,0,0,1.18.74,8.49,8.49,0,0,0,2.23.2Z"/><path class="cls-2" d="M330.38,73.9a1.47,1.47,0,0,1,1,.37,1.17,1.17,0,0,1,.42.91,1.21,1.21,0,0,1-.42.92,1.48,1.48,0,0,1-1,.38,1.42,1.42,0,0,1-1-.39,1.17,1.17,0,0,1,0-1.8A1.42,1.42,0,0,1,330.38,73.9Zm-1.19,4.64h2.41v11h-2.41Z"/><path class="cls-2" d="M344.18,87v2.16a10.94,10.94,0,0,1-3.54.61,6.5,6.5,0,0,1-4.55-1.54,5.26,5.26,0,0,1-1.69-4.11,5.57,5.57,0,0,1,1.65-4.2,6,6,0,0,1,4.34-1.6,7.73,7.73,0,0,1,1.68.16,11.55,11.55,0,0,1,1.85.61v2.33a6.81,6.81,0,0,0-3.38-1.06,3.62,3.62,0,0,0-2.67,1,3.54,3.54,0,0,0-1,2.64A3.4,3.4,0,0,0,338,86.74a4.43,4.43,0,0,0,3.05,1A8.56,8.56,0,0,0,344.18,87Z"/><path class="cls-2" d="M348.15,73.9a1.47,1.47,0,0,1,1,.37,1.17,1.17,0,0,1,.42.91,1.21,1.21,0,0,1-.42.92,1.48,1.48,0,0,1-1,.38,1.39,1.39,0,0,1-1-.39,1.17,1.17,0,0,1,0-1.8A1.39,1.39,0,0,1,348.15,73.9ZM347,78.54h2.4v11H347Z"/><path class="cls-2" d="M355.25,78.54V80a5,5,0,0,1,3.65-1.62,4.44,4.44,0,0,1,2.12.53,3.67,3.67,0,0,1,1.48,1.47,6.4,6.4,0,0,1,.51,2.94v6.32h-2.4V83.3a4,4,0,0,0-.57-2.42,2.28,2.28,0,0,0-1.9-.73,3.54,3.54,0,0,0-2.89,1.55v7.89h-2.46v-11Z"/><path class="cls-2" d="M374,83v4.69q0,.57.42.57a3.11,3.11,0,0,0,1.36-.59V89a8.84,8.84,0,0,1-1.32.66,3.22,3.22,0,0,1-1,.17c-1,0-1.64-.37-1.82-1.1a5.59,5.59,0,0,1-3.27,1.08,3.09,3.09,0,0,1-2.11-.76,2.49,2.49,0,0,1-.84-1.92,2.57,2.57,0,0,1,.82-1.87,5.79,5.79,0,0,1,2.34-1.3l3.08-1v-.59c0-1.33-.73-2-2.19-2a5.48,5.48,0,0,0-3.83,1.85V79.83a5.24,5.24,0,0,1,4-1.5,4.9,4.9,0,0,1,3.15.94,2.91,2.91,0,0,1,.72.79,2.87,2.87,0,0,1,.4,1A12.75,12.75,0,0,1,374,83Zm-2.37,4.45V84.13l-1.61.56a5.69,5.69,0,0,0-1.74.9,1.45,1.45,0,0,0-.5,1.12,1.42,1.42,0,0,0,.48,1.11,1.8,1.8,0,0,0,1.25.44A3.17,3.17,0,0,0,371.63,87.4Z"/><path class="cls-2" d="M385.77,72.82h9.84V75h-7.2v4.68h7.2v2.13h-7.2v7.82h-2.64Z"/><path class="cls-2" d="M405.74,83v4.69q0,.57.42.57a3.11,3.11,0,0,0,1.36-.59V89a8.37,8.37,0,0,1-1.31.66,3.29,3.29,0,0,1-1,.17c-1,0-1.64-.37-1.82-1.1a5.56,5.56,0,0,1-3.26,1.08A3.09,3.09,0,0,1,398,89a2.49,2.49,0,0,1-.84-1.92,2.57,2.57,0,0,1,.82-1.87,5.9,5.9,0,0,1,2.35-1.3l3.08-1v-.59c0-1.33-.74-2-2.2-2a5.48,5.48,0,0,0-3.83,1.85V79.83a5.26,5.26,0,0,1,4-1.5,5,5,0,0,1,3.16.94,3,3,0,0,1,.71.79,2.69,2.69,0,0,1,.4,1A12.75,12.75,0,0,1,405.74,83Zm-2.36,4.45V84.13l-1.62.56a5.74,5.74,0,0,0-1.73.9,1.5,1.5,0,0,0,0,2.23,1.8,1.8,0,0,0,1.25.44A3.21,3.21,0,0,0,403.38,87.4Z"/><path class="cls-2" d="M419.6,81.57v8h-2.41V83.44a4.46,4.46,0,0,0-.54-2.56,2.23,2.23,0,0,0-1.89-.73,3,3,0,0,0-1.38.32,5.73,5.73,0,0,0-1.44,1.1v8h-2.4v-11h2.4V80a5.48,5.48,0,0,1,3.6-1.67,4,4,0,0,1,3.57,2,5.62,5.62,0,0,1,4-2,3.89,3.89,0,0,1,2.91,1.17,5,5,0,0,1,1.15,3.59v6.52h-2.41V83.05a3.17,3.17,0,0,0-.62-2.12,2.23,2.23,0,0,0-1.78-.73A3.83,3.83,0,0,0,419.6,81.57Z"/><path class="cls-2" d="M431.74,73.9a1.51,1.51,0,0,1,1,.37,1.17,1.17,0,0,1,.42.91,1.21,1.21,0,0,1-.42.92,1.52,1.52,0,0,1-1,.38,1.4,1.4,0,0,1-1-.39,1.17,1.17,0,0,1,0-1.8A1.4,1.4,0,0,1,431.74,73.9Zm-1.19,4.64H433v11h-2.4Z"/><path class="cls-2" d="M436.48,72.82h2.4V89.59h-2.4Z"/><path class="cls-2" d="M443.59,73.9a1.47,1.47,0,0,1,1,.37,1.17,1.17,0,0,1,.42.91,1.21,1.21,0,0,1-.42.92,1.48,1.48,0,0,1-1,.38,1.39,1.39,0,0,1-1-.39,1.17,1.17,0,0,1,0-1.8A1.39,1.39,0,0,1,443.59,73.9Zm-1.18,4.64h2.4v11h-2.4Z"/><path class="cls-2" d="M455.91,83v4.69c0,.38.14.57.43.57a3.11,3.11,0,0,0,1.36-.59V89a8.84,8.84,0,0,1-1.32.66,3.22,3.22,0,0,1-1,.17c-1,0-1.64-.37-1.83-1.1a5.54,5.54,0,0,1-3.26,1.08,3.07,3.07,0,0,1-2.11-.76,2.49,2.49,0,0,1-.84-1.92,2.57,2.57,0,0,1,.82-1.87,5.79,5.79,0,0,1,2.34-1.3l3.08-1v-.59c0-1.33-.73-2-2.19-2a5.48,5.48,0,0,0-3.83,1.85V79.83a5.24,5.24,0,0,1,4-1.5,4.9,4.9,0,0,1,3.15.94,3.08,3.08,0,0,1,.72.79,2.87,2.87,0,0,1,.4,1A13.22,13.22,0,0,1,455.91,83Zm-2.36,4.45V84.13l-1.61.56a5.69,5.69,0,0,0-1.74.9,1.51,1.51,0,0,0,0,2.23,1.77,1.77,0,0,0,1.24.44A3.17,3.17,0,0,0,453.55,87.4Z"/><path class="cls-2" d="M462.4,78.54v2.54l.13-.19q1.74-2.56,3.49-2.56a4.48,4.48,0,0,1,2.83,1.25l-1.26,1.92a3.71,3.71,0,0,0-2.33-1.08,2.55,2.55,0,0,0-2,1,3.55,3.55,0,0,0-.85,2.39v5.77H460v-11Z"/><path class="cls-2" d="M296.29,102.32h2.47v16.77H296.1V106l-5.67,6.48h-.49L284.21,106v13h-2.64V102.32h2.5l6.13,6.89Z"/><path class="cls-2" d="M312.76,113.76h-8.55a3.43,3.43,0,0,0,1.17,2.52,4.05,4.05,0,0,0,2.78.94,7.67,7.67,0,0,0,4.38-1.35V118a8.23,8.23,0,0,1-2.2,1,10.06,10.06,0,0,1-2.55.29,6.13,6.13,0,0,1-3.25-.76,5.69,5.69,0,0,1-2-2,5.86,5.86,0,0,1-.74-3,5.4,5.4,0,0,1,5.65-5.68,5,5,0,0,1,3.86,1.54,5.75,5.75,0,0,1,1.44,4.11Zm-8.5-1.31h6.12a2.69,2.69,0,0,0-2.92-2.72,3.11,3.11,0,0,0-2.12.71A3.4,3.4,0,0,0,304.26,112.45Z"/><path class="cls-2" d="M323.46,102.32h2.42v16.77h-5.14a6,6,0,0,1-4.3-1.55,5.52,5.52,0,0,1-1.6-4.15,5.25,5.25,0,0,1,1.68-4,6.06,6.06,0,0,1,4.3-1.57,8.54,8.54,0,0,1,2.64.46Zm0,14.9v-7a5.44,5.44,0,0,0-2.27-.52,3.67,3.67,0,0,0-3.92,4,3.57,3.57,0,0,0,.92,2.63,2.94,2.94,0,0,0,1.18.75,9.1,9.1,0,0,0,2.23.19Z"/><path class="cls-2" d="M330.38,103.4a1.52,1.52,0,0,1,1,.37,1.21,1.21,0,0,1,0,1.83,1.48,1.48,0,0,1-1,.38,1.42,1.42,0,0,1-1-.39,1.17,1.17,0,0,1,0-1.8A1.42,1.42,0,0,1,330.38,103.4Zm-1.19,4.65h2.41v11h-2.41Z"/><path class="cls-2" d="M344.18,116.51v2.16a10.94,10.94,0,0,1-3.54.61,6.54,6.54,0,0,1-4.55-1.53,5.3,5.3,0,0,1-1.69-4.12,5.57,5.57,0,0,1,1.65-4.2,6,6,0,0,1,4.34-1.6,7.73,7.73,0,0,1,1.68.16,11.55,11.55,0,0,1,1.85.61v2.33a6.81,6.81,0,0,0-3.38-1.06,3.62,3.62,0,0,0-2.67,1,3.55,3.55,0,0,0-1,2.65,3.43,3.43,0,0,0,1.12,2.69,4.48,4.48,0,0,0,3.05,1A8.56,8.56,0,0,0,344.18,116.51Z"/><path class="cls-2" d="M354.55,112.45v4.7c0,.37.14.56.42.56a3.11,3.11,0,0,0,1.36-.59v1.33a8.84,8.84,0,0,1-1.32.66,3.22,3.22,0,0,1-1,.17c-1,0-1.64-.37-1.82-1.1a5.59,5.59,0,0,1-3.27,1.08,3.09,3.09,0,0,1-2.11-.76,2.49,2.49,0,0,1-.84-1.92,2.57,2.57,0,0,1,.82-1.87,5.76,5.76,0,0,1,2.35-1.3l3.07-1v-.59c0-1.32-.73-2-2.19-2a5.48,5.48,0,0,0-3.83,1.85v-2.39a5.24,5.24,0,0,1,4-1.5,4.9,4.9,0,0,1,3.15.94,2.91,2.91,0,0,1,.72.79,2.87,2.87,0,0,1,.4,1A12.75,12.75,0,0,1,354.55,112.45Zm-2.37,4.46v-3.28l-1.61.56a5.49,5.49,0,0,0-1.73.9,1.51,1.51,0,0,0,0,2.24,1.84,1.84,0,0,0,1.25.43A3.2,3.2,0,0,0,352.18,116.91Z"/><path class="cls-2" d="M358.51,102.32h2.4v16.77h-2.4Z"/><path class="cls-2" d="M382.2,110.83h6.19v7.11a18.45,18.45,0,0,1-6.76,1.34,10.61,10.61,0,0,1-7.32-2.43,7.69,7.69,0,0,1-2.74-6,8,8,0,0,1,2.83-6.26,10.43,10.43,0,0,1,7.12-2.5,14.07,14.07,0,0,1,3,.31,26.18,26.18,0,0,1,3.54,1.12V106a14,14,0,0,0-6.55-1.74,7.36,7.36,0,0,0-5.1,1.87,6.22,6.22,0,0,0,0,9.27,7.8,7.8,0,0,0,5.34,1.81,13.59,13.59,0,0,0,3.79-.66l.25-.07V113H382.2Z"/><path class="cls-2" d="M394.49,108.05v2.53l.13-.19q1.74-2.56,3.49-2.56a4.53,4.53,0,0,1,2.84,1.25L399.68,111a3.71,3.71,0,0,0-2.33-1.08,2.55,2.55,0,0,0-2,1,3.57,3.57,0,0,0-.85,2.39v5.77h-2.42v-11Z"/><path class="cls-2" d="M407.76,108a6.68,6.68,0,0,1,4.61,1.63,5.24,5.24,0,0,1,1.83,4.09,5,5,0,0,1-1.86,4,7,7,0,0,1-4.69,1.58,6.71,6.71,0,0,1-4.57-1.6,5.31,5.31,0,0,1,0-8A6.83,6.83,0,0,1,407.76,108Zm-.13,2a4,4,0,0,0-2.84,1,3.44,3.44,0,0,0-1.11,2.63,3.31,3.31,0,0,0,1.13,2.59,4.24,4.24,0,0,0,2.92,1,4.2,4.2,0,0,0,2.9-1,3.36,3.36,0,0,0,1.13-2.6,3.31,3.31,0,0,0-1.18-2.61A4.3,4.3,0,0,0,407.63,110Z"/><path class="cls-2" d="M424.61,119.09v-1.42a5.6,5.6,0,0,1-1.75,1.19,5,5,0,0,1-2,.42,4.35,4.35,0,0,1-2.12-.52,3.54,3.54,0,0,1-1.47-1.42,6.49,6.49,0,0,1-.49-3v-6.32h2.4v6.29a4,4,0,0,0,.55,2.43,2.31,2.31,0,0,0,1.92.69,3.61,3.61,0,0,0,2.92-1.53v-7.88H427v11Z"/><path class="cls-2" d="M430.23,124.72V108.05h4.21a7.75,7.75,0,0,1,5,1.46,5,5,0,0,1,1.8,4.09,5.38,5.38,0,0,1-1.69,4.09,6.06,6.06,0,0,1-4.32,1.59,8,8,0,0,1-2.57-.47v5.91Zm4.16-14.63h-1.7v6.79a5.35,5.35,0,0,0,2.32.52,3.77,3.77,0,0,0,2.76-1.07,3.73,3.73,0,0,0,1.07-2.75,3.57,3.57,0,0,0-.51-1.91,3,3,0,0,0-1.38-1.21A6.79,6.79,0,0,0,434.39,110.09Z"/></svg>