<svg id="Layer_1" data-name="Layer 1" xmlns="http://www.w3.org/2000/svg" viewBox="0 0 200 200"><defs><style>.cls-1{fill:#a3cef1;}</style></defs><path class="cls-1" d="M112.57,198V121.14h23.14c1.15-9.52,2.21-18.28,3.36-27.7H112.5c0-7.79-.37-15,.13-22.21.34-4.94,3.87-7.81,8.81-8,6-.27,11.94-.07,18.22-.07V37.73c-11.79-.52-23.54-2.63-35,1.54C91.21,44.15,85,54.71,84,68.45c-.58,8-.1,16.15-.1,24.78H60.61v27.82H83.4v75.57C50.13,199.19,7.09,153.33,2.63,113-3.51,57.52,35.75,6.64,92.68,2.29c53.47-4.08,98.11,34.77,104.48,85.29C204.77,148,159.64,193.12,112.57,198Z"/></svg>