<svg id="Layer_1" data-name="Layer 1" xmlns="http://www.w3.org/2000/svg" viewBox="0 0 200 200"><defs><style>.cls-1{fill:#a3cef1;}</style></defs><path class="cls-1" d="M198,100.44A98.06,98.06,0,0,1,101.31,198C47.39,199,3,155.72,2,101.32,1,47.4,44.19,3.05,98.61,2S197,44.42,198,100.44ZM87.91,76.81v63.51h19.87c0-2,0-3.78,0-5.53,0-10.67-.15-21.34.1-32,.16-6.84,4.6-11.23,10.67-11.28,5.72,0,9.28,3.31,9.62,10.41.51,10.34.37,20.72.49,31.09,0,2.45,0,4.9,0,7.29h19.81V136c0-12.59.43-25.21-.25-37.78-.86-16-11.81-25.22-27-22.37-5.55,1-10.55,5-15.77,7.55-.22-1.49-.59-3.94-1-6.61Zm-12,63.62V76.84H56.36v63.59Zm.64-81.15c.09-6-4.2-10.28-10.27-10.33s-10.72,4.22-10.72,10,4.26,10,10.12,10.13C71.86,69.22,76.5,65.06,76.58,59.28Z"/></svg>